<svg version="1.1" xmlns="http://www.w3.org/2000/svg" style="display: block;" viewBox="0 0 2048 2048" width="1024" height="1024" preserveAspectRatio="none">
<path transform="translate(0,0)" fill="rgb(5,23,15)" d="M 0 0 L 2048 0 L 2048 2048 L 0 2048 L 0 0 z"/>
<path transform="translate(0,0)" fill="rgb(3,56,26)" d="M 755.852 873.804 C 771.283 873.583 786.717 873.668 802.145 874.059 C 803.231 918.338 802.401 964.004 802.29 1008.4 L 802.167 1236.94 L 802.3 1387 C 802.362 1409.95 803.658 1450.8 801.63 1472.15 C 784.685 1462.67 771.755 1455.23 755.765 1444.25 C 753.853 1363.31 755.779 1282.04 755.842 1201.07 C 755.927 1092.02 754.676 982.834 755.852 873.804 z"/>
<path transform="translate(0,0)" fill="rgb(3,56,26)" d="M 685.066 949.136 C 700.291 949.507 716.78 949.195 732.105 949.201 L 732.393 1261.25 C 732.541 1295.51 732.51 1329.77 732.298 1364.03 C 732.266 1384.17 732.814 1407.17 731.737 1427.09 C 723.078 1423.17 695.414 1395.63 685.06 1387.62 C 686.425 1336.32 685.034 1277.11 684.921 1225.25 L 685.066 949.136 z"/>
<path transform="translate(0,0)" fill="rgb(3,56,26)" d="M 618.337 948.491 C 632.986 948.477 647.634 948.552 662.282 948.718 C 663.97 1039.41 662.037 1135.18 662.082 1226.54 L 662.247 1313.76 C 662.29 1324.28 662.946 1351.27 661.611 1360.38 L 660.139 1361.07 C 643.942 1340.54 630.399 1320.14 615.021 1299.07 L 614.985 1036.18 C 614.975 1024.47 613.294 957.138 615.522 949.079 L 618.337 948.491 z"/>
<path transform="translate(0,0)" fill="rgb(3,56,26)" d="M 824.725 1146.61 C 825.861 1147.71 825.683 1147.4 826.471 1148.64 C 839.171 1168.51 853.837 1185.38 870.486 1201.95 C 872.447 1267.68 871.14 1339.25 871.16 1405.45 L 871.154 1466.57 C 871.143 1475.76 871.564 1494.36 870.205 1502.82 C 854.773 1496.8 839.433 1490.16 824.122 1484.27 C 824.87 1455.11 824.129 1423.52 824.047 1394.14 L 823.947 1238.2 C 823.954 1208.64 823.278 1175.83 824.725 1146.61 z"/>
<path transform="translate(0,0)" fill="rgb(3,56,26)" d="M 893.98 1222.61 C 912.716 1232.63 919.293 1239.51 942.068 1247.97 L 941.992 1428.56 C 942.003 1438.71 942.947 1518.91 940.712 1522.2 C 927.68 1520 907.06 1514.19 893.681 1510.86 C 892.967 1414.78 893.067 1318.69 893.98 1222.61 z"/>
<path transform="translate(0,0)" fill="rgb(3,56,26)" d="M 1147.92 1224.94 C 1151.32 1228.89 1149.6 1309.17 1149.58 1320.43 L 1149 1512.46 C 1134.46 1516.58 1118.84 1519.61 1104.02 1522.46 L 1102.49 1521.34 C 1101.56 1516.75 1102.09 1503.52 1102.09 1497.92 L 1102.01 1449.38 C 1101.75 1384.8 1100.44 1315.33 1101.76 1251.01 C 1118.08 1243.11 1133.33 1235.8 1147.92 1224.94 z"/>
<path transform="translate(0,0)" fill="rgb(3,56,26)" d="M 1185.33 1213.53 L 1218.74 1213.09 L 1218.77 1487.49 L 1196.76 1496.61 L 1171.95 1506.17 L 1171.93 1214.03 L 1185.33 1213.53 z"/>
<path transform="translate(0,0)" fill="rgb(3,56,26)" d="M 963.899 1256.64 C 978.967 1261.63 995.507 1263.37 1011.22 1265.35 C 1009.92 1353.12 1012.02 1441.12 1010.01 1529.24 C 995.345 1529.36 979.019 1527 964.195 1525.65 C 966.308 1497.9 964.484 1455.3 964.261 1425.84 C 963.849 1369.44 963.728 1313.04 963.899 1256.64 z"/>
<path transform="translate(0,0)" fill="rgb(3,56,26)" d="M 1076.18 1258.19 L 1079.02 1258.09 C 1080.89 1261.86 1079.74 1498.09 1079.72 1525.86 C 1064.52 1527 1052.1 1528.04 1036.75 1528.4 C 1035 1528.34 1035.16 1528.19 1033.43 1527.57 C 1032.68 1519.08 1033.08 1504.65 1033.08 1495.69 L 1033.11 1440.14 L 1032.96 1264.31 C 1047.55 1263.89 1062.05 1261.83 1076.18 1258.19 z"/>
<path transform="translate(0,0)" fill="rgb(1,253,159)" d="M 993.966 535.42 C 997.588 534.904 1007.53 534.909 1011.67 534.821 L 1011.98 772.731 C 1001.33 773.524 991.285 775.279 980.767 776.98 L 964.055 780.934 L 964.725 538.07 C 973.424 536.83 985.016 536.18 993.966 535.42 z"/>
<path transform="translate(0,0)" fill="rgb(3,56,26)" d="M 1305.95 1216.08 C 1322.25 1215.93 1338.56 1215.98 1354.86 1216.22 L 1355.52 1399.39 C 1349.33 1405.65 1342.45 1411.14 1335.68 1416.77 C 1327.37 1423.75 1315.16 1432.24 1306.16 1438.83 C 1307.39 1365.64 1305.99 1289.57 1305.95 1216.08 z"/>
<path transform="translate(0,0)" fill="rgb(1,253,159)" d="M 636.63 727.276 L 662.531 727.016 L 662.552 932.894 L 643.587 932.83 L 614.904 932.883 L 614.846 757.967 C 622.707 748.141 629.564 737.687 636.63 727.276 z"/>
<path transform="translate(0,0)" fill="rgb(1,253,159)" d="M 1033.88 535.404 C 1050.47 536.06 1064.87 536.817 1081.26 539.304 L 1080.86 671.346 C 1080.85 687.767 1082.14 717.69 1080.68 732.986 L 1033.55 733.152 C 1032.4 682.81 1034.6 631.732 1033.68 581.329 C 1033.4 566.302 1033.47 550.432 1033.88 535.404 z"/>
<path transform="translate(0,0)" fill="rgb(1,253,159)" d="M 1236.99 685.158 L 1284.16 685.282 C 1283.72 750.913 1283.68 816.546 1284.05 882.178 L 1236.8 882.186 L 1236.99 685.158 z"/>
<path transform="translate(0,0)" fill="rgb(1,253,159)" d="M 1306.28 612.365 C 1322.54 612.614 1338.8 612.744 1355.07 612.754 C 1354.05 676.958 1355.1 740.958 1354.81 805.141 L 1306.8 805.301 L 1306.28 612.365 z"/>
<path transform="translate(0,0)" fill="rgb(1,253,159)" d="M 1376.45 518.13 L 1424.08 518.062 L 1424.34 644.183 C 1424.36 654.92 1425.15 693.027 1423.9 702.063 L 1376.04 702.155 L 1376.45 518.13 z"/>
<path transform="translate(0,0)" fill="rgb(3,56,26)" d="M 548.028 1022.92 L 595.117 1023.01 L 594.968 1187.71 C 595 1212.5 596.019 1237.6 595.694 1262.34 C 590.99 1258.83 581.241 1236.23 578.548 1229.63 C 566.282 1199.56 555.649 1165.53 549.459 1133.7 C 547.61 1124.2 548.739 1098.13 548.745 1087.82 C 548.679 1066.18 548.44 1044.55 548.028 1022.92 z"/>
<path transform="translate(0,0)" fill="rgb(3,56,26)" d="M 1242.04 1280.45 C 1257.59 1280.36 1273.14 1280.46 1288.68 1280.74 L 1288.16 1449.59 C 1283.28 1453.43 1277.87 1456.63 1272.62 1459.93 L 1241.94 1477.54 C 1241.78 1469.18 1241.77 1460.54 1241.86 1452.16 C 1242.46 1395.06 1240.72 1337.52 1242.04 1280.45 z"/>
<path transform="translate(0,0)" fill="rgb(1,253,159)" d="M 1172.64 561.355 C 1189.4 567.019 1204.89 573.634 1221.03 580.788 C 1220.1 631.661 1219.8 682.544 1220.14 733.424 L 1172.4 733.661 C 1171.76 677.172 1172.11 617.805 1172.64 561.355 z"/>
<path transform="translate(0,0)" fill="rgb(1,253,159)" d="M 867.259 562.956 C 868.839 562.668 867.978 562.603 869.769 563.59 C 870.635 567.833 870.067 606.939 870.057 613.311 L 870.073 733.635 L 825.75 733.899 L 823.647 733.543 C 822.285 730.232 822.931 595.32 822.878 580.902 C 836.539 574.464 853.13 568.216 867.259 562.956 z"/>
<path transform="translate(0,0)" fill="rgb(1,253,159)" d="M 894.098 652.978 L 941.316 652.96 L 941.984 788.631 C 936.288 790.83 930.612 793.081 924.958 795.385 C 913.969 800.699 904.723 806.73 894.776 813.73 C 895.104 760.145 894.878 706.558 894.098 652.978 z"/>
<path transform="translate(0,0)" fill="rgb(1,253,159)" d="M 684.843 800.665 C 700.371 800.373 716.585 800.602 732.167 800.597 L 731.779 933.799 C 716.221 933.711 700.662 933.736 685.103 933.873 L 684.843 800.665 z"/>
<path transform="translate(0,0)" fill="rgb(1,253,159)" d="M 752.846 728.9 C 768.629 728.589 785.209 728.843 801.054 728.843 L 800.983 857.263 L 752.982 857.265 L 752.846 728.9 z"/>
<path transform="translate(0,0)" fill="rgb(1,253,159)" d="M 564.635 870.769 L 594.802 870.598 C 594.339 916.444 594.171 962.293 594.298 1008.14 L 577.5 1008.12 L 546.416 1008.2 C 546.445 989.982 545.878 961.383 547.117 944.27 C 548.493 925.279 558.973 889.236 564.635 870.769 z"/>
<path transform="translate(0,0)" fill="rgb(3,56,26)" d="M 1172.05 741.007 L 1220.38 741.189 C 1220.49 786.404 1221.79 837.055 1220.03 881.698 C 1215.87 881.646 1214.4 877.259 1212.06 873.388 C 1200.94 855.048 1189.29 844.647 1173.77 830.39 C 1171.93 802.115 1173.22 770.246 1172.05 741.007 z"/>
<path transform="translate(0,0)" fill="rgb(3,56,26)" d="M 863.652 749.505 L 871.857 749.461 C 871.399 776.664 871.311 803.871 871.592 831.077 C 852.469 850.366 844.475 857.461 830.128 880.589 L 825.131 889.363 L 823.772 749.855 L 863.652 749.505 z"/>
<path transform="translate(0,0)" fill="rgb(3,56,26)" d="M 1378.05 1275.08 C 1394.63 1274.88 1411.42 1275 1428.02 1275 C 1428.14 1289.69 1428.07 1304.38 1427.81 1319.06 C 1421.96 1328.44 1409.97 1342.49 1402.8 1351.34 C 1395.5 1360.19 1387.06 1368.32 1378.95 1376.47 C 1377.12 1346.69 1378.16 1305.67 1378.05 1275.08 z"/>
<path transform="translate(0,0)" fill="rgb(1,253,159)" d="M 1121.56 738.509 L 1149 738.352 L 1148.91 811.611 L 1137.5 804.2 C 1124.53 796.288 1117.54 792.151 1103.29 786.775 L 1103.69 738.735 L 1121.56 738.509 z"/>
<path transform="translate(0,0)" fill="rgb(1,253,159)" d="M 1443.38 1213.9 C 1457.75 1213.53 1473.16 1213.87 1487.6 1213.96 C 1481.08 1229.31 1474.08 1244.45 1466.59 1259.35 L 1456.05 1278.96 L 1443.14 1279.21 L 1443.38 1213.9 z"/>
<path transform="translate(0,0)" fill="rgb(3,56,26)" d="M 1035.15 750.774 C 1050.12 750.766 1065.09 750.845 1080.06 751.011 L 1079.91 779.761 C 1060.77 775.333 1054.94 774.078 1035.37 773.685 C 1035.23 766.049 1035.15 758.411 1035.15 750.774 z"/>
</svg>